{"accessors" : [{"bufferView" : 0, "byteOffset" : 0, "componentType" : 5123, "count" : 3693, "type" : "SCALAR", "max" : [2995], "min" : [0]}, {"bufferView" : 1, "byteOffset" : 0, "componentType" : 5126, "count" : 2996, "type" : "VEC3", "max" : [1, 1.4092928171157837, 1.044455885887146], "min" : [-1, 0.00284444447606802, -1.2175662517547607], "name" : "POSITION"}, {"bufferView" : 1, "byteOffset" : 12, "componentType" : 5126, "count" : 2996, "type" : "VEC3", "max" : [1.0000044107437134, 1.0000044107437134, 1.0000044107437134], "min" : [-1.0000044107437134, -1.0000044107437134, -1.0000044107437134], "name" : "NORMAL"}, {"bufferView" : 0, "byteOffset" : 7388, "componentType" : 5123, "count" : 1470, "type" : "SCALAR", "max" : [1146], "min" : [0]}, {"bufferView" : 2, "byteOffset" : 0, "componentType" : 5126, "count" : 1147, "type" : "VEC3", "max" : [0.9155318140983582, 1.3489338159561157, 0.476396381855011], "min" : [0.5000500679016113, 0.9871472120285034, 0.4066339433193207], "name" : "POSITION"}, {"bufferView" : 2, "byteOffset" : 12, "componentType" : 5126, "count" : 1147, "type" : "VEC3", "max" : [1.0000044107437134, 1.0000044107437134, 0.9999048709869385], "min" : [-1.0000044107437134, -1.0000044107437134, -1.0000044107437134], "name" : "NORMAL"}, {"bufferView" : 0, "byteOffset" : 10328, "componentType" : 5123, "count" : 1290, "type" : "SCALAR", "max" : [1051], "min" : [0]}, {"bufferView" : 3, "byteOffset" : 0, "componentType" : 5126, "count" : 1052, "type" : "VEC3", "max" : [-0.5942003726959229, 0.8858364224433899, 0.5179601311683655], "min" : [-0.8075225949287415, 0.6725142002105713, 0.47728630900382996], "name" : "POSITION"}, {"bufferView" : 3, "byteOffset" : 12, "componentType" : 5126, "count" : 1052, "type" : "VEC3", "max" : [1.0000044107437134, 1.0000044107437134, 1.0000044107437134], "min" : [-1.0000044107437134, -1.0000044107437134, -1.0000044107437134], "name" : "NORMAL"}, {"bufferView" : 0, "byteOffset" : 12908, "componentType" : 5123, "count" : 4452, "type" : "SCALAR", "max" : [3643], "min" : [0]}, {"bufferView" : 4, "byteOffset" : 0, "componentType" : 5126, "count" : 3644, "type" : "VEC3", "max" : [0.3412282168865204, 1.3610994815826416, 0.6799253225326538], "min" : [-0.344311386346817, 0.6755280494689941, 0.46577778458595276], "name" : "POSITION"}, {"bufferView" : 4, "byteOffset" : 12, "componentType" : 5126, "count" : 3644, "type" : "VEC3", "max" : [1.0000044107437134, 1.0000044107437134, 1.0000044107437134], "min" : [-1.000003695487976, -1.0000044107437134, -1.0000044107437134], "name" : "NORMAL"}, {"bufferView" : 0, "byteOffset" : 21812, "componentType" : 5123, "count" : 858, "type" : "SCALAR", "max" : [691], "min" : [0]}, {"bufferView" : 5, "byteOffset" : 0, "componentType" : 5126, "count" : 692, "type" : "VEC3", "max" : [0.2072892189025879, 1.2271604537963867, 0.5377780199050903], "min" : [-0.21040424704551697, 0.8094670176506042, 0.45932281017303467], "name" : "POSITION"}, {"bufferView" : 5, "byteOffset" : 12, "componentType" : 5126, "count" : 692, "type" : "VEC3", "max" : [0.7432738542556763, 0.7432737946510315, 1.0000044107437134], "min" : [-0.7432738542556763, -0.7432739734649658, -1.0000044107437134], "name" : "NORMAL"}, {"bufferView" : 0, "byteOffset" : 23528, "componentType" : 5123, "count" : 1284, "type" : "SCALAR", "max" : [1003], "min" : [0]}, {"bufferView" : 6, "byteOffset" : 0, "componentType" : 5126, "count" : 1004, "type" : "VEC3", "max" : [0.7660496234893799, 0.9183134436607361, 0.6646987199783325], "min" : [0.5112090110778809, 0.6634728312492371, 0.46577778458595276], "name" : "POSITION"}, {"bufferView" : 6, "byteOffset" : 12, "componentType" : 5126, "count" : 1004, "type" : "VEC3", "max" : [0.9998468160629272, 0.9998468160629272, 1.0000044107437134], "min" : [-0.9998468160629272, -0.9998468160629272, -1.0000044107437134], "name" : "NORMAL"}], "asset" : {"generator" : "Aspose.3D 23.2", "version" : "2.0"}, "buffers" : [{"uri" : "data:application/octet-stream;base64,", "byteLength" : 339252}], "bufferViews" : [{"buffer" : 0, "byteOffset" : 0, "byteLength" : 26096, "target" : 34963}, {"buffer" : 0, "byteOffset" : 26100, "byteLength" : 88632, "byteStride" : 24, "target" : 34962}, {"buffer" : 0, "byteOffset" : 114736, "byteLength" : 35280, "byteStride" : 24, "target" : 34962}, {"buffer" : 0, "byteOffset" : 150020, "byteLength" : 30960, "byteStride" : 24, "target" : 34962}, {"buffer" : 0, "byteOffset" : 180984, "byteLength" : 106848, "byteStride" : 24, "target" : 34962}, {"buffer" : 0, "byteOffset" : 287836, "byteLength" : 20592, "byteStride" : 24, "target" : 34962}, {"buffer" : 0, "byteOffset" : 308432, "byteLength" : 30816, "byteStride" : 24, "target" : 34962}], "meshes" : [{"primitives" : [{"attributes" : {"POSITION" : 1, "NORMAL" : 2}, "indices" : 0, "mode" : 4}], "name" : ""}, {"primitives" : [{"attributes" : {"POSITION" : 4, "NORMAL" : 5}, "indices" : 3, "mode" : 4}], "name" : ""}, {"primitives" : [{"attributes" : {"POSITION" : 7, "NORMAL" : 8}, "indices" : 6, "mode" : 4}], "name" : ""}, {"primitives" : [{"attributes" : {"POSITION" : 10, "NORMAL" : 11}, "indices" : 9, "mode" : 4}], "name" : ""}, {"primitives" : [{"attributes" : {"POSITION" : 13, "NORMAL" : 14}, "indices" : 12, "mode" : 4}], "name" : ""}, {"primitives" : [{"attributes" : {"POSITION" : 16, "NORMAL" : 17}, "indices" : 15, "mode" : 4}], "name" : ""}], "nodes" : [{"mesh" : 0, "name" : "Case_default"}, {"mesh" : 1, "name" : "ViewFinder_default"}, {"mesh" : 2, "name" : "ShutterButton_default"}, {"mesh" : 3, "name" : "LensRim_default"}, {"mesh" : 4, "name" : "LensGlass_default"}, {"mesh" : 5, "name" : "FocusKnob_default"}], "scene" : 0, "scenes" : [{"nodes" : [0, 1, 2, 3, 4, 5]}]}