{"accessors" : [{"bufferView" : 0, "byteOffset" : 0, "componentType" : 5123, "count" : 33723, "type" : "SCALAR", "max" : [33722], "min" : [0]}, {"bufferView" : 1, "byteOffset" : 0, "componentType" : 5126, "count" : 33723, "type" : "VEC3", "max" : [5850, 7935.03271484375, 1933.93408203125], "min" : [-5850, -3472.876953125, -1764.3134765625], "name" : "POSITION"}, {"bufferView" : 1, "byteOffset" : 12, "componentType" : 5126, "count" : 33723, "type" : "VEC3", "max" : [1.0000044107437134, 1.0000044107437134, 1.0000044107437134], "min" : [-1.0000044107437134, -1.0000044107437134, -1.0000044107437134], "name" : "NORMAL"}], "asset" : {"generator" : "Aspose.3D 23.2", "version" : "2.0"}, "buffers" : [{"uri" : "data:application/octet-stream;base64,", "byteLength" : 876808}], "bufferViews" : [{"buffer" : 0, "byteOffset" : 0, "byteLength" : 67448, "target" : 34963}, {"buffer" : 0, "byteOffset" : 67452, "byteLength" : 809352, "byteStride" : 24, "target" : 34962}], "meshes" : [{"primitives" : [{"attributes" : {"POSITION" : 1, "NORMAL" : 2}, "indices" : 0, "mode" : 4}], "name" : "\"reduce1\""}], "nodes" : [{"mesh" : 0, "name" : "\"reduce1\""}], "scene" : 0, "scenes" : [{"nodes" : [0]}]}